<svg xmlns="http://www.w3.org/2000/svg" width="158" height="53" viewBox="0 0 158 53">
  <g fill="none" fill-rule="evenodd">
    <path fill="#FF1B2A" d="M0,26.5 C0,40.3095793 10.535339,51.6634905 24.0233918,53 L24.0233918,50.4688246 L24.0233918,47.6398999 L24.0233918,42.2541211 L24.0233918,26.4599536 L24.0233918,10.7455732 C16.4496519,12.0142178 10.6768928,18.5830459 10.6768928,26.5 C10.6768928,32.414024 13.8983136,37.5745037 18.6850986,40.3364807 L18.6850986,46.2550902 C10.8595033,43.0944836 5.33829321,35.4419578 5.33829321,26.5 C5.33829321,15.6348991 13.4895847,6.67031966 24.0233918,5.35948874 L24.0233918,0 C10.535339,1.33681521 0,12.6904207 0,26.5"/>
    <path fill="#283193" d="M28.6432749,0 L28.6432749,5.35893916 C39.1770819,6.6697852 47.3283735,15.6350795 47.3283735,26.5003057 C47.3283735,35.4417553 41.8077761,43.0943693 33.9815681,46.2550123 L33.9815681,40.3363346 C38.768353,37.5743257 41.9900803,32.4137865 41.9900803,26.5003057 C41.9900803,18.5826489 36.2170147,12.0131336 28.6432749,10.7453914 L28.6432749,42.2539972 L28.6432749,47.6404494 L28.6432749,53 C42.131634,51.6640865 52.6666667,40.3094329 52.6666667,26.5003057 C52.6666667,12.6905671 42.131634,1.33591353 28.6432749,0"/>
    <path fill="#616366" d="M110.826516 13.7241072C109.389121 13.7241072 108.585089 14.5109754 108.208778 16.6489379L107.849205 18.6840965C107.763422 19.1461164 107.729646 19.5394011 107.729646 19.8818815 107.729646 21.1648383 108.310702 21.609525 109.440531 21.609525 110.877029 21.609525 111.71663 20.7371861 112.075306 18.6840965L112.433982 16.6489379C112.503625 16.2212857 112.554139 15.8447365 112.554139 15.5198881 112.554139 14.2366325 111.972187 13.7241072 110.826516 13.7241072L110.826516 13.7241072zM115.377517 16.6489379L115.017945 18.6840965C114.316434 22.6871728 112.194566 24.1754386 108.978437 24.1754386 106.635086 24.1754386 104.77027 22.7896779 104.77027 19.9840877 104.77027 19.5740675 104.803746 19.1461164 104.88953 18.6840965L105.249102 16.6489379C106.002023 12.4058863 108.431157 11.1578947 111.28861 11.1578947 113.58055 11.1578947 115.497076 12.4058863 115.497076 15.3142803 115.497076 15.7248982 115.463301 16.1695849 115.377517 16.6489379L115.377517 16.6489379zM98.8882807 13.5866369C98.6476688 13.5866369 97.6903026 13.6207056 97.4846616 13.6380388L96.8683365 17.1279922C97.0572393 17.1447277 98.0666136 17.1620609 98.2552174 17.1620609 99.7774985 17.1620609 100.615904 16.6148692 100.752201 15.4347163L100.770135 15.2802116C100.786873 15.1603733 100.786873 15.0581671 100.786873 14.9553632 100.786873 13.9802204 100.188482 13.5866369 98.8882807 13.5866369L98.8882807 13.5866369zM103.677802 15.2802116L103.660765 15.4347163C103.302089 18.6670622 100.786873 19.5740675 97.8274962 19.5740675 97.4168121 19.5740675 96.8683365 19.5394011 96.441512 19.5229644L95.7226653 23.6796489C95.6879933 23.8673257 95.5002861 24.0212327 95.3116823 24.0212327L93.1049276 24.0212327C92.933062 24.0212327 92.8141011 23.9187277 92.8141011 23.7474875L92.8141011 23.6963844 94.8504846 12.201175C94.9530062 11.6193169 95.2091607 11.4654099 95.7570384 11.3802381 96.646854 11.2430666 98.0498754 11.1578947 99.2816288 11.1578947 101.881732 11.1578947 103.712773 12.183543 103.712773 14.6299172 103.712773 14.835525 103.695138 15.0581671 103.677802 15.2802116L103.677802 15.2802116zM92.5896297 11.6372478L91.2377197 19.2492191C90.4674628 23.5424774 88.1411494 24.1754386 85.4205913 24.1754386 83.0252328 24.1754386 81.2629376 23.0634232 81.2629376 20.4634408 81.2629376 20.0871905 81.2808714 19.6942046 81.366057 19.2492191L82.7173691 11.6372478C82.7517423 11.4483755 82.9227112 11.311204 83.1110162 11.311204L85.3524428 11.311204C85.5237107 11.311204 85.6429705 11.43164 85.6429705 11.585547L85.6429705 11.6372478 84.2919572 19.2492191C84.2226131 19.6254695 84.1888378 19.9673522 84.1888378 20.2584307 84.1888378 21.2846766 84.6676704 21.7287655 85.8653496 21.7287655 87.4055646 21.7287655 88.0048525 20.9932993 88.3127162 19.2492191L89.6637294 11.6372478C89.6978037 11.4483755 89.8687726 11.311204 90.0573765 11.311204L92.281766 11.311204C92.452735 11.311204 92.5896297 11.4149045 92.5896297 11.585547L92.5896297 11.6372478zM75.2243267 13.6380388C74.9846115 13.6380388 74.0953937 13.6721076 73.8900516 13.6894408L73.3089964 16.9740852C73.4967035 16.9911195 74.3183707 17.0081539 74.5060778 17.0081539 76.1828886 17.0081539 77.2260382 16.5981337 77.2260382 14.8008585 77.2260382 13.9117841 76.5597974 13.6380388 75.2243267 13.6380388L75.2243267 13.6380388zM77.2610091 18.8039348L78.9889312 23.6279481C79.0056694 23.6796489 79.0224076 23.7134187 79.0224076 23.7648207 79.0224076 23.9019922 78.919886 24.0212327 78.714544 24.0212327L76.233701 24.0212327C76.0459938 24.0212327 76.0286578 23.8505902 75.9605094 23.6796489L74.4202945 19.3517242 74.4035562 19.3517242C74.3351089 19.3517242 74.2316906 19.3684597 74.0953937 19.3684597 73.7358209 19.3684597 73.2052792 19.3346898 72.8803784 19.3346898L72.1274576 23.6796489C72.0939811 23.8673257 71.9059751 24.0212327 71.7173712 24.0212327L69.4929817 24.0212327C69.3229094 24.0212327 69.2194911 23.9019922 69.2194911 23.7474875L69.2194911 23.6963844 69.2194911 23.6796489 71.2385386 12.201175C71.3404624 11.6193169 71.5981114 11.4654099 72.1453914 11.3802381 72.9661618 11.2430666 74.4373316 11.1578947 75.6690851 11.1578947 78.2354125 11.1578947 80.1519384 12.1160032 80.1519384 14.4246082 80.1519384 16.4609622 79.2618239 18.1195716 77.2610091 18.8039348L77.2610091 18.8039348zM68.629469 11.8078903L68.3042693 13.6207056C68.2695973 13.809279 68.1670757 13.8436466 68.0137417 13.8436466L67.9617336 13.8436466C67.1412621 13.809279 65.8742388 13.7064751 64.4201061 13.7064751 63.0350186 13.7064751 62.0770546 14.2539657 61.6660716 16.6148692L61.2903584 18.7525329C61.2216121 19.1807828 61.1702019 19.5570332 61.1702019 19.8818815 61.1702019 21.3014121 61.8717125 21.6609269 62.6927819 21.6609269 63.1722122 21.6609269 63.6160739 21.6441914 64.0273558 21.609525L64.7109327 17.6757815C64.7459036 17.4869093 64.9168725 17.3330023 65.1045797 17.3330023L67.294895 17.3330023C67.465864 17.3330023 67.5683855 17.4534382 67.5683855 17.6067475L67.5683855 17.6757815 66.5590112 23.4226391C66.5252359 23.6626145 66.4227143 23.7648207 66.148626 23.8162226 65.1906619 24.0044972 63.9589085 24.1754386 62.2474257 24.1754386 60.5024665 24.1754386 58.2105263 23.0977907 58.2105263 20.0181565 58.2105263 19.6254695 58.2443016 19.1975183 58.330085 18.7354985L58.706396 16.6148692C59.5451003 11.893361 62.0940917 11.1578947 64.8827983 11.1578947 66.5933844 11.1578947 67.7740265 11.4149045 68.3900527 11.5505817 68.5099103 11.585547 68.629469 11.6372478 68.629469 11.7564884L68.629469 11.8078903zM158 29.5080751L157.686344 31.2364353C157.651054 31.424424 157.529668 31.527235 157.337702 31.527235L157.303324 31.527235C156.815651 31.4925661 154.829973 31.3389474 153.646537 31.3389474 152.810222 31.3389474 152.096206 31.4758295 152.096206 32.433705 152.096206 32.7932446 152.270222 32.9641977 152.984239 33.4262494L155.004903 34.7263301C156.310029 35.5643592 156.867674 36.4711281 156.867674 37.4633736 156.867674 40.5940278 154.37759 41.8421053 151.452465 41.8421053 150.07615 41.8421053 149.014404 41.6884865 148.160748 41.4664268 148.004072 41.4320568 147.882078 41.3295447 147.882078 41.175926L147.882078 41.1239227 148.178089 39.4478647C148.213379 39.2422427 148.353019 39.1232928 148.544072 39.1232928L148.596095 39.1232928C149.29277 39.1908372 151.190527 39.3280181 151.869862 39.3280181 152.846121 39.3280181 153.663878 39.0198841 153.663878 37.9254253 153.663878 37.5488502 153.454571 37.1719762 152.757895 36.7278567L150.61615 35.3422994C149.519114 34.6411524 149.048782 33.648608 149.048782 32.6898359 149.048782 29.6966615 151.538257 28.8245614 154.168588 28.8245614 155.439336 28.8245614 157.163685 29.0289879 157.790693 29.2005388 157.930332 29.2346099 158 29.3203853 158 29.4405307L158 29.5080751zM148.140061 29.3888263L147.843746 30.9800056C147.809368 31.1682931 147.634439 31.3219119 147.443385 31.3219119L143.908288 31.3219119C143.194272 31.3219119 142.759534 31.4587939 142.584605 32.4683738L142.306543 34.0419198 146.816681 34.0419198C146.990698 34.0419198 147.095352 34.1620652 147.095352 34.3330184L147.095352 34.3835272 146.816681 36.0090764C146.781696 36.197364 146.589729 36.3518793 146.398676 36.3518793L141.888842 36.3518793 141.557236 38.1645206C141.522859 38.3363704 141.505214 38.4893914 141.505214 38.6098356 141.505214 39.157065 141.801833 39.3280181 142.463219 39.3280181L145.998316 39.3280181C146.172332 39.3280181 146.294631 39.4478647 146.294631 39.6188178L146.294631 39.6696256 145.998316 41.2611037C145.963025 41.4834623 145.84164 41.5859744 145.597955 41.6206432 144.970947 41.7061198 144.099342 41.8421053 142.21923 41.8421053 140.408177 41.8421053 138.510116 41.2105948 138.510116 39.0031474 138.510116 38.7464188 138.544798 38.4556191 138.597429 38.1645206L139.624798 32.4851105C140.216211 29.1661688 142.149563 28.8245614 144.535297 28.8245614 146.415713 28.8245614 147.252332 28.9608457 147.843746 29.04692 148.053357 29.0809911 148.157098 29.1320977 148.157098 29.2860153 148.157098 29.3203853 148.140061 29.3544564 148.140061 29.3888263L148.140061 29.3888263zM138.861801 29.3033498L138.548145 31.065781C138.513767 31.2534708 138.304764 31.3906518 138.112494 31.3906518L135.292326 31.3906518 133.515651 41.3465802C133.481274 41.5348678 133.289308 41.6884865 133.097646 41.6884865L130.816565 41.6884865C130.642548 41.6884865 130.538503 41.5692377 130.538503 41.4150213L130.538503 41.3465802 132.314266 31.3906518 129.475845 31.3906518C129.301828 31.3906518 129.197479 31.2875419 129.197479 31.1336243L129.197479 31.065781 129.511135 29.3033498C129.545512 29.1153611 129.719529 28.9781801 129.911495 28.9781801L138.548145 28.9781801C138.722161 28.9781801 138.861801 29.0980267 138.861801 29.2519443L138.861801 29.3033498zM128.121434 29.3033498L126.014066 41.038745C125.944398 41.3982846 125.613706 41.6884865 125.247723 41.6884865L123.785312 41.6884865C123.419025 41.6884865 123.018969 41.6206432 122.827611 41.1579938L119.936559 34.4181961C119.883928 34.3162817 119.849855 34.2816129 119.797224 34.2816129 119.745201 34.2816129 119.710216 34.3162817 119.692875 34.4181961L118.456199 41.3465802C118.421822 41.5348678 118.230768 41.6884865 118.038802 41.6884865L115.983761 41.6884865C115.810048 41.6884865 115.704482 41.5692377 115.704482 41.3982846L115.704482 41.3465802 117.794814 29.6285194C117.864785 29.2698764 118.212819 28.9781801 118.578802 28.9781801L119.902182 28.9781801C120.249911 28.9781801 120.667916 29.0809911 120.841933 29.5080751L123.83703 36.5569036C123.889661 36.6594157 123.889661 36.6940845 123.941988 36.6940845 123.976366 36.6940845 124.046337 36.6594157 124.063374 36.5395691L125.369717 29.3033498C125.404095 29.1153611 125.579024 28.9781801 125.770382 28.9781801L127.825119 28.9781801C127.998831 28.9781801 128.121434 29.0980267 128.121434 29.2519443L128.121434 29.3033498zM115.900403 29.3888263L115.604392 30.9800056C115.568798 31.1682931 115.394781 31.3219119 115.203728 31.3219119L111.668631 31.3219119C110.954614 31.3219119 110.518964 31.4587939 110.344947 32.4683738L110.065972 34.0419198 114.577024 34.0419198C114.75104 34.0419198 114.854781 34.1620652 114.854781 34.3330184L114.854781 34.3835272 114.577024 36.0090764C114.541125 36.197364 114.350072 36.3518793 114.158106 36.3518793L109.648271 36.3518793 109.317578 38.1645206C109.283201 38.3363704 109.264643 38.4893914 109.264643 38.6098356 109.264643 39.157065 109.561263 39.3280181 110.222648 39.3280181L113.757745 39.3280181C113.932675 39.3280181 114.054061 39.4478647 114.054061 39.6188178L114.054061 39.6696256 113.757745 41.2611037C113.723368 41.4834623 113.601069 41.5859744 113.357385 41.6206432 112.731289 41.7061198 111.859684 41.8421053 109.978964 41.8421053 108.167607 41.8421053 106.270459 41.2105948 106.270459 39.0031474 106.270459 38.7464188 106.30514 38.4556191 106.357771 38.1645206L107.38514 32.4851105C107.976554 29.1661688 109.909905 28.8245614 112.295639 28.8245614 114.176055 28.8245614 115.011457 28.9608457 115.604392 29.04692 115.812786 29.0809911 115.91744 29.1320977 115.91744 29.2860153 115.91744 29.3203853 115.900403 29.3544564 115.900403 29.3888263L115.900403 29.3888263zM100.354799 31.3048763C99.9197574 31.3048763 99.3627211 31.3219119 99.1184282 31.3389474L97.6727501 39.3280181C97.9167387 39.3447548 98.473775 39.3620892 98.9094255 39.3620892 100.581143 39.3620892 101.591475 38.7464188 102.008872 36.437057L102.409232 34.2296096C102.479204 33.8530345 102.514494 33.5114271 102.514494 33.2203286 102.514494 31.7322592 101.661143 31.3048763 100.354799 31.3048763L100.354799 31.3048763zM105.387293 34.2296096L104.986932 36.437057C104.290257 40.3032281 102.322528 41.8421053 98.4567384 41.8421053 97.0113645 41.8421053 95.4966272 41.7061198 94.7999514 41.5859744 94.5380135 41.5348678 94.3825545 41.4320568 94.3825545 41.1579938 94.3825545 41.1068872 94.3825545 41.0554817 94.3995911 40.9876384L96.4369873 29.6799249C96.5060464 29.2860153 96.6980125 29.1320977 97.0460461 29.0809911 97.7770993 28.9608457 99.3627211 28.8245614 100.807487 28.8245614 103.69793 28.8245614 105.508679 30.3467019 105.508679 32.9988666 105.508679 33.3915806 105.474605 33.8025256 105.387293 34.2296096L105.387293 34.2296096zM89.455323 31.5104983C89.455323 31.3389474 89.4370695 31.2534708 89.2803935 31.2534708 89.1240218 31.2534708 89.05405 31.3389474 88.9852951 31.5104983L87.0701974 36.2314351 89.6640215 36.2314351 89.455323 31.5104983zM92.5377328 41.6884865L90.1510861 41.6884865C89.9770692 41.6884865 89.8559876 41.5522022 89.8559876 41.3809502L89.7336891 38.5751668 86.1642147 38.5751668 85.0312801 41.3809502C84.9619167 41.5522022 84.8058492 41.6884865 84.6321366 41.6884865L82.1414448 41.6884865C81.9847688 41.6884865 81.8974562 41.6033088 81.8974562 41.4834623 81.8974562 41.4320568 81.9151013 41.3809502 81.9324421 41.3295447L86.4249357 30.7229781C87.1216115 29.0809911 88.4626362 28.8245614 89.6640215 28.8245614 90.8660153 28.8245614 92.0844372 29.0809911 92.1887865 30.7229781L92.8854622 41.3295447 92.8854622 41.3465802C92.8854622 41.5522022 92.7287862 41.6884865 92.5377328 41.6884865L92.5377328 41.6884865zM77.0742698 31.3048763C76.8296727 31.3048763 75.924907 31.3389474 75.7149916 31.3559829L75.1226651 34.6411524C75.3146312 34.6578891 76.1512505 34.6749246 76.3423039 34.6749246 78.0493116 34.6749246 79.1110576 34.2645773 79.1110576 32.4683738 79.1110576 31.5783416 78.4323311 31.3048763 77.0742698 31.3048763L77.0742698 31.3048763zM79.1463477 36.4711281L80.9047694 41.2957725C80.9221102 41.3465802 80.9391468 41.3809502 80.9391468 41.4320568 80.9391468 41.5692377 80.8347976 41.6884865 80.6264033 41.6884865L78.1007256 41.6884865C77.9096722 41.6884865 77.8926356 41.5175334 77.8223596 41.3465802L76.2549913 37.0180586 76.2379547 37.0180586C76.1682871 37.0180586 76.0639379 37.0356919 75.924907 37.0356919 75.5583156 37.0356919 75.0183159 37.0010231 74.6876231 37.0010231L73.9212798 41.3465802C73.8869023 41.5348678 73.6958489 41.6884865 73.5038828 41.6884865L71.2398388 41.6884865C71.065822 41.6884865 70.9614727 41.5692377 70.9614727 41.4150213L70.9614727 41.3636158 70.9614727 41.3465802 73.0162098 29.8676147C73.1214717 29.2860153 73.3821927 29.1320977 73.9395333 29.04692 74.7749357 28.9097391 76.2726364 28.8245614 77.5275654 28.8245614 80.1381218 28.8245614 82.0891181 29.782437 82.0891181 32.0917987 82.0891181 34.1273964 81.1837439 35.7867178 79.1463477 36.4711281L79.1463477 36.4711281zM71.3718725 29.3033498L69.2121778 41.3465802C69.1778003 41.5348678 69.0028708 41.6884865 68.8118174 41.6884865L66.4774974 41.6884865C66.3208214 41.6884865 66.2350299 41.5692377 66.2350299 41.4320568L66.2350299 41.3465802 68.3928993 29.3033498C68.4281894 29.1153611 68.5678288 28.9781801 68.7588822 28.9781801L71.0925938 28.9781801C71.2666106 28.9781801 71.3718725 29.0809911 71.3718725 29.2346099L71.3718725 29.3033498zM66.9508718 29.3033498L66.6372156 31.065781C66.6028382 31.2534708 66.3938355 31.3906518 66.2024778 31.3906518L63.380789 31.3906518 61.6047223 41.3465802C61.5703448 41.5348678 61.378683 41.6884865 61.1873253 41.6884865L58.9059405 41.6884865C58.7316194 41.6884865 58.6272702 41.5692377 58.6272702 41.4150213L58.6272702 41.3465802 60.4042496 31.3906518 57.5643073 31.3906518C57.390899 31.3906518 57.2865497 31.2875419 57.2865497 31.1336243L57.2865497 31.065781 57.6002059 29.3033498C57.6345833 29.1153611 57.8089044 28.9781801 58.0005663 28.9781801L66.6372156 28.9781801C66.8112325 28.9781801 66.9508718 29.0980267 66.9508718 29.2519443L66.9508718 29.3033498z"/>
  </g>
</svg>
